<svg width="17" height="17" viewBox="0 0 17 17" fill="none" xmlns="http://www.w3.org/2000/svg">
<path d="M8.49764 11.8327C9.3817 11.8327 10.2295 11.4815 10.8547 10.8564C11.4798 10.2313 11.831 9.3834 11.831 8.49935C11.831 7.61529 11.4798 6.76745 10.8547 6.14233C10.2295 5.5172 9.3817 5.16602 8.49764 5.16602C7.61359 5.16602 6.76574 5.5172 6.14062 6.14233C5.5155 6.76745 5.16431 7.61529 5.16431 8.49935C5.16431 9.3834 5.5155 10.2313 6.14062 10.8564C6.76574 11.4815 7.61359 11.8327 8.49764 11.8327Z" stroke="white" stroke-linecap="round" stroke-linejoin="round"/>
<path d="M1 11.8333V5.16667C1 4.0616 1.43899 3.00179 2.22039 2.22039C3.00179 1.43899 4.0616 1 5.16667 1H11.8333C12.9384 1 13.9982 1.43899 14.7796 2.22039C15.561 3.00179 16 4.0616 16 5.16667V11.8333C16 12.9384 15.561 13.9982 14.7796 14.7796C13.9982 15.561 12.9384 16 11.8333 16H5.16667C4.0616 16 3.00179 15.561 2.22039 14.7796C1.43899 13.9982 1 12.9384 1 11.8333Z" stroke="white"/>
<path d="M13.084 3.92608L13.0931 3.91602" stroke="white" stroke-width="1.5" stroke-linecap="round" stroke-linejoin="round"/>
</svg>
