<svg width="19" height="18" viewBox="0 0 19 18" fill="none" xmlns="http://www.w3.org/2000/svg">
<path d="M9.5 1C4.80538 1 1 4.08135 1 7.87413C1 10.2707 2.52564 12.3783 4.83154 13.6055L4.06436 16.7447C4.05451 16.7839 4.05628 16.8252 4.06944 16.8633C4.0826 16.9015 4.10656 16.9348 4.13829 16.9591C4.17002 16.9834 4.20809 16.9975 4.24769 16.9997C4.28729 17.0019 4.32664 16.9921 4.36077 16.9715L8.19231 14.6504C8.62595 14.7079 9.06271 14.7376 9.5 14.7394C14.1946 14.7394 18 11.6669 18 7.87413C18 4.08135 14.1946 1 9.5 1Z" stroke="white" stroke-linecap="round" stroke-linejoin="round"/>
</svg>
