<svg width="19" height="14" viewBox="0 0 19 14" fill="none" xmlns="http://www.w3.org/2000/svg">
<path d="M17.6226 2.88663C17.5258 2.52121 17.3361 2.18804 17.0726 1.92045C16.8091 1.65286 16.4809 1.46026 16.1211 1.36191C15.1376 0.976093 5.61005 0.787068 2.84587 1.3727C2.48596 1.47109 2.15782 1.66376 1.8943 1.93142C1.63078 2.19909 1.44114 2.53235 1.34435 2.89785C0.90023 4.87572 0.866655 9.15166 1.3554 11.174C1.45225 11.5394 1.64193 11.8726 1.90544 12.1402C2.16895 12.4077 2.49706 12.6003 2.85692 12.6987C4.80468 13.154 14.0645 13.2179 16.1321 12.6987C16.492 12.6003 16.8201 12.4077 17.0836 12.1402C17.3471 11.8726 17.5368 11.5394 17.6337 11.174C18.1071 9.01917 18.1407 5.00821 17.6226 2.88663Z" stroke="white" stroke-linecap="round" stroke-linejoin="round"/>
<path d="M12.516 7.03246L8.12891 4.29053V9.7744L12.516 7.03246Z" stroke="white" stroke-linecap="round" stroke-linejoin="round"/>
</svg>
